<?xml version="1.0" encoding="utf-8"?>
<!-- Generator: Adobe Illustrator 25.4.1, SVG Export Plug-In . SVG Version: 6.00 Build 0)  -->
<svg version="1.1" id="Ebene_1" xmlns="http://www.w3.org/2000/svg" xmlns:xlink="http://www.w3.org/1999/xlink" x="0px" y="0px"
	 viewBox="0 0 282.3 282" style="enable-background:new 0 0 282.3 282;" xml:space="preserve">
<style type="text/css">
	.st0{fill:#CECEF2;}
	.st1{fill:#FFFFFF;stroke:#34335D;stroke-width:10;stroke-linecap:round;stroke-miterlimit:10;}
	.st2{fill:none;stroke:#34335D;stroke-width:10;stroke-miterlimit:10;}
	.st3{fill:none;stroke:#34335D;stroke-width:10;stroke-miterlimit:10;stroke-dasharray:8.959,8.959;}
	.st4{fill:none;stroke:#34335D;stroke-width:10;stroke-miterlimit:10;stroke-dasharray:9.568,9.568;}
	.st5{fill:#34335D;}
</style>
<path class="st0" d="M282,241.5H46V0.5h229.5c3.6,0,6.5,2.9,6.5,6.5V241.5z"/>
<line class="st1" x1="47.5" y1="5" x2="47.5" y2="277"/>
<line class="st1" x1="5" y1="238" x2="277" y2="238"/>
<g>
	<g>
		<line class="st2" x1="277.3" y1="238.7" x2="277.3" y2="234.1"/>
		<line class="st3" x1="277.3" y1="225.1" x2="277.3" y2="14.6"/>
		<line class="st2" x1="277.3" y1="10.1" x2="277.3" y2="5.5"/>
	</g>
</g>
<g>
	<g>
		<line class="st2" x1="277" y1="5.7" x2="272.4" y2="5.7"/>
		<line class="st4" x1="262.8" y1="5.7" x2="57.1" y2="5.7"/>
		<line class="st2" x1="52.3" y1="5.7" x2="47.8" y2="5.7"/>
	</g>
</g>
<circle class="st5" cx="46.5" cy="238" r="17.5"/>
<g>
	<path class="st5" d="M133,135.9c9.3-7.7,19.2-15.3,19.2-22.7c0-3.2-1.4-5.2-4.6-5.2c-3.1,0-4.9,2.4-4.9,6.5h-9.9
		c0.3-10.6,7.2-15.2,15.2-15.2c10,0,14.4,5.8,14.4,13.2c0,9.6-8.6,17.3-15.5,22.6h16.2v8.3H133V135.9z"/>
	<path class="st5" d="M206.5,123c0,12.5-8.6,21.1-22.1,21.1h-15.8V102h15.8C197.9,102,206.5,110.5,206.5,123z M183.8,135.2
		c7.7,0,12.3-4.4,12.3-12.2s-4.6-12.3-12.3-12.3h-4.9v24.5H183.8z"/>
</g>
</svg>
