<?xml version="1.0" encoding="utf-8"?>
<!-- Generator: Adobe Illustrator 27.0.1, SVG Export Plug-In . SVG Version: 6.00 Build 0)  -->
<svg version="1.1" id="Ebene_1" xmlns="http://www.w3.org/2000/svg" xmlns:xlink="http://www.w3.org/1999/xlink" x="0px" y="0px"
	 viewBox="0 0 213 205.7" style="enable-background:new 0 0 213 205.7;" xml:space="preserve">
<style type="text/css">
	.st0{opacity:0.8;fill:#E6E6FF;stroke:#8B8BC9;stroke-width:3;stroke-miterlimit:10;enable-background:new    ;}
	.st1{opacity:0.8;fill:#FFFFFF;stroke:#2C2C54;stroke-width:3;stroke-miterlimit:10;enable-background:new    ;}
	.st2{opacity:0.8;}
	.st3{fill:none;stroke:#FC5C65;stroke-width:3;stroke-linecap:round;stroke-miterlimit:10;}
	.st4{fill:#FC5C65;}
	.st5{fill:none;stroke:#FD9644;stroke-width:3;stroke-linecap:round;stroke-miterlimit:10;}
	.st6{fill:#FD9644;}
	.st7{fill:none;stroke:#FED330;stroke-width:3;stroke-linecap:round;stroke-miterlimit:10;}
	.st8{fill:#FED330;}
	.st9{opacity:0.8;fill:none;stroke:#FED330;stroke-width:6;stroke-linecap:round;stroke-miterlimit:10;enable-background:new    ;}
	.st10{opacity:0.8;fill:none;stroke:#FC5C65;stroke-width:6;stroke-linecap:round;stroke-miterlimit:10;enable-background:new    ;}
	.st11{opacity:0.8;fill:none;stroke:#FD9644;stroke-width:6;stroke-linecap:round;stroke-miterlimit:10;enable-background:new    ;}
	.st12{opacity:0.8;fill:none;stroke:#4B7BEC;stroke-width:6;stroke-linecap:round;stroke-miterlimit:10;enable-background:new    ;}
	.st13{opacity:0.8;fill:none;stroke:#2BCBBA;stroke-width:6;stroke-linecap:round;stroke-miterlimit:10;enable-background:new    ;}
</style>
<path class="st0" d="M102.4,35.3L33.3,155c-2.2,3.7,0.5,8.3,4.8,8.2l138.2,0c4.3,0,6.9-4.5,4.7-8.3L111.8,35.2
	C109.9,31.6,104.6,31.6,102.4,35.3z"/>
<path class="st1" d="M106.5,32.6"/>
<g class="st2">
	<g>
		<path class="st3" d="M16.8,183.6c-5.2,1.4-10.8-0.8-13.7-5.7c-3.4-5.8-1.3-13.3,4.5-16.7"/>
		<g>
			<path class="st4" d="M15.4,180.5c1.7-0.6,3.7,0.2,4.4,1.8c0.7,1.7-0.2,3.7-1.8,4.4c-1.7,0.6-3.7-0.2-4.4-1.8
				C12.8,183.1,13.7,181.1,15.4,180.5z"/>
		</g>
	</g>
</g>
<g class="st2">
	<g>
		<path class="st5" d="M205.4,159.4c4.7,2.7,7.1,8.3,5.6,13.7c-1.8,6.6-8.4,10.4-15,8.7"/>
		<g>
			<path class="st6" d="M204.2,162.6c-1.7-0.7-2.5-2.7-1.7-4.4s2.7-2.5,4.4-1.7c1.7,0.7,2.5,2.7,1.7,4.4
				C207.9,162.5,205.9,163.3,204.2,162.6z"/>
		</g>
	</g>
</g>
<g class="st2">
	<g>
		<path class="st7" d="M96.3,11.4c1-5.3,5.4-9.5,11.1-9.8c6.7-0.5,12.5,4.5,13.1,11.3"/>
		<g>
			<path class="st8" d="M99.7,11.5c-0.1,1.9-1.7,3.3-3.6,3.1c-1.9-0.1-3.3-1.7-3.1-3.6c0.1-1.9,1.7-3.3,3.6-3.1
				C98.3,8,99.8,9.6,99.7,11.5z"/>
		</g>
	</g>
</g>
<line class="st9" x1="107.3" y1="11" x2="107.3" y2="202.7"/>
<line class="st10" x1="13.6" y1="171.4" x2="179.6" y2="75.5"/>
<line class="st11" x1="34.1" y1="75.2" x2="200.2" y2="171"/>
<path class="st12" d="M82.1,102.8c2.5-4.1,5.9-7.7,10.4-10.3c13.9-8,31.6-3.2,39.6,10.6"/>
<path class="st13" d="M107.4,150.5c-12.9,0.3-25.6-6.3-32.5-18.2c-10.1-17.5-4.1-39.8,13.4-49.9s39.8-4.1,49.9,13.4"/>
</svg>
